<?xml version="1.0" encoding="UTF-8"?>
<svg width="58px" height="58px" viewBox="0 0 58 58" version="1.1" xmlns="http://www.w3.org/2000/svg" xmlns:xlink="http://www.w3.org/1999/xlink">
    <!-- Generator: Sketch 40.3 (33839) - http://www.bohemiancoding.com/sketch -->
    <title>Page 1</title>
    <desc>Created with Sketch.</desc>
    <defs></defs>
    <g id="Page-1" stroke="none" stroke-width="1" fill="none" fill-rule="evenodd">
        <g id="Oceanica_logo" transform="translate(-121.000000, -121.000000)" fill="#FF5B60">
            <path d="M150,176 C149.407,176 148.82,175.973 148.237,175.934 C139.609,174.888 130.113,163.766 130.113,152.913 C130.113,146.015 132.542,140.743 135.542,137.52 L135.542,155.938 C135.542,165.719 145.021,168.667 151.792,168.667 C162.32,168.667 171.073,159.969 171.073,146.875 C171.073,139.719 168.355,132.979 164.005,128.18 C171.147,132.814 175.937,140.852 175.937,150 C175.937,164.359 164.359,176 150,176 L150,176 Z M138.542,135.523 C141.542,134.485 143.517,133.923 146.146,133.923 C152.168,133.923 158.084,135.826 158.131,142.914 L158.48,163.706 C156.332,164.748 154.983,165.769 152.295,165.769 C146.274,165.769 138.542,164.047 138.542,157.047 L138.542,135.523 Z M124,150 C124,135.641 135.641,124 150,124 C150.158,124 150.314,124.009 150.472,124.012 C159.218,124.764 167.861,135.917 167.861,146.792 C167.861,153.518 165.542,158.606 161.542,161.733 L161.542,143.653 C161.542,133.749 152.953,130.765 146.182,130.765 C135.654,130.765 127.456,139.571 127.456,152.829 C127.456,159.13 129.628,165.11 132.986,169.759 C127.412,164.991 124,157.911 124,150 L124,150 Z M150,121 C133.984,121 121,133.984 121,150 C121,166.016 133.984,179 150,179 C166.016,179 179,166.016 179,150 C179,133.984 166.016,121 150,121 L150,121 Z" id="Page-1"></path>
        </g>
    </g>
</svg>